<svg xmlns="http://www.w3.org/2000/svg" width="1600" height="900" viewBox="0 0 1600 900" role="img" aria-labelledby="t d">
<title id="t">AI·클라우드·위기 데이터 활용</title>
<desc id="d">AI 기능, 클라우드 자원, 위기 데이터가 SafeCircle을 통해 시민에게 이해 가능한 안전정보와 행동으로 연결되는 구조도</desc>

<style>
  text{font-family:-apple-system,BlinkMacSystemFont,"Noto Sans KR","Apple SD Gothic Neo","Malgun Gothic",sans-serif;fill:#173052}
  .title{font-size:54px;font-weight:800}
  .subtitle{font-size:25px;font-weight:600;fill:#66758A}
  .label{font-size:28px;font-weight:800}
  .body{font-size:22px;font-weight:500}
  .small{font-size:19px;font-weight:600;fill:#66758A}
  .card{fill:#FFFFFF;stroke:#DCE6F1;stroke-width:2}
  .arrow{fill:none;stroke:#9DB2C7;stroke-width:5;stroke-linecap:round;stroke-linejoin:round}
</style>
<rect width="1600" height="900" fill="#F7FAFD"/>
<g transform="translate(74 58) scale(1.15)">
<g id="safecircle-logo" transform="translate(0 0)">
  <circle cx="32" cy="32" r="30" fill="#F4F9FF"/>
  <circle cx="32" cy="12" r="7" fill="#2F80ED"/>
  <path d="M18 23c5-6 12-8 18-5 5 2 9 7 10 13" fill="none" stroke="#2F80ED" stroke-width="7" stroke-linecap="round"/>
  <circle cx="50" cy="35" r="7" fill="#F2B134"/>
  <path d="M44 49c-6 3-13 2-18-2-4-3-6-8-6-13" fill="none" stroke="#F2B134" stroke-width="7" stroke-linecap="round"/>
  <circle cx="14" cy="40" r="7" fill="#35C98A"/>
  <path d="M20 48c-5-3-8-9-8-15 0-5 2-10 6-14" fill="none" stroke="#35C98A" stroke-width="7" stroke-linecap="round"/>
</g></g>
<text x="160" y="105" class="title">AI·클라우드·위기 데이터 활용</text>
<text x="160" y="150" class="subtitle">민관협력 지원 플랫폼의 자원을 실제 사용자 경험으로 연결합니다.</text>

<rect x="95" y="245" width="350" height="235" rx="28" fill="#EEF5FF" stroke="#CFE0F6" stroke-width="2"/>
<circle cx="170" cy="320" r="46" fill="#DCEBFF"/><text x="170" y="331" text-anchor="middle" class="label" fill="#2F80ED">AI</text>
<text x="235" y="307" class="label">AI 기능</text>
<text x="235" y="348" class="body">의미 차이 정리</text>
<text x="235" y="382" class="body">쉬운 표현·확인 질문</text>
<text x="235" y="416" class="body">공식 확인 필요 영역 구분</text>

<rect x="95" y="515" width="350" height="235" rx="28" fill="#EFFAF5" stroke="#CDEBDD" stroke-width="2"/>
<circle cx="170" cy="590" r="46" fill="#DDF5E9"/><path d="M143 598c2-22 19-36 40-33 13 2 24 11 28 24 17 1 30 14 30 30 0 17-14 31-32 31h-58c-18 0-32-13-32-30 0-11 7-19 24-22z" fill="#35C98A" opacity=".85"/>
<text x="235" y="578" class="label">클라우드</text>
<text x="235" y="619" class="body">서비스 운영·배포</text>
<text x="235" y="653" class="body">안전정보 저장·상태 처리</text>
<text x="235" y="687" class="body">기관·서비스 연계</text>

<rect x="1155" y="245" width="350" height="235" rx="28" fill="#FFF7E8" stroke="#F0DFC2" stroke-width="2"/>
<circle cx="1230" cy="320" r="46" fill="#FFF0CC"/><path d="M1210 291h40v58h-40zM1219 303h22M1219 315h22M1219 327h22" stroke="#F2B134" stroke-width="5" fill="none" stroke-linecap="round"/>
<text x="1295" y="307" class="label">위기 데이터</text>
<text x="1295" y="348" class="body">재난·안전 공공정보</text>
<text x="1295" y="382" class="body">지역별 대응정보</text>
<text x="1295" y="416" class="body">검증된 Open API</text>

<rect x="1155" y="515" width="350" height="235" rx="28" fill="#FFF1F2" stroke="#F3D4D7" stroke-width="2"/>
<circle cx="1230" cy="590" r="46" fill="#FFE1E4"/><path d="M1208 590l15 15 30-36" stroke="#F45C6B" stroke-width="8" fill="none" stroke-linecap="round" stroke-linejoin="round"/>
<text x="1295" y="578" class="label">검증 원칙</text>
<text x="1295" y="619" class="body">위기 시 공식정보 우선</text>
<text x="1295" y="653" class="body">AI의 임의 행동지시 금지</text>
<text x="1295" y="687" class="body">출처·검토 상태 확인</text>

<path d="M455 365H625" class="arrow"/><path d="M602 348l23 17-23 17" class="arrow"/>
<path d="M455 635H625" class="arrow"/><path d="M602 618l23 17-23 17" class="arrow"/>
<path d="M1145 365H975" class="arrow"/><path d="M998 348l-23 17 23 17" class="arrow"/>
<path d="M1145 635H975" class="arrow"/><path d="M998 618l-23 17 23 17" class="arrow"/>

<rect x="610" y="270" width="380" height="430" rx="42" fill="#FFFFFF" stroke="#B9D3F4" stroke-width="3"/>
<g transform="translate(744 315) scale(1.75)">
<g id="safecircle-logo" transform="translate(0 0)">
  <circle cx="32" cy="32" r="30" fill="#F4F9FF"/>
  <circle cx="32" cy="12" r="7" fill="#2F80ED"/>
  <path d="M18 23c5-6 12-8 18-5 5 2 9 7 10 13" fill="none" stroke="#2F80ED" stroke-width="7" stroke-linecap="round"/>
  <circle cx="50" cy="35" r="7" fill="#F2B134"/>
  <path d="M44 49c-6 3-13 2-18-2-4-3-6-8-6-13" fill="none" stroke="#F2B134" stroke-width="7" stroke-linecap="round"/>
  <circle cx="14" cy="40" r="7" fill="#35C98A"/>
  <path d="M20 48c-5-3-8-9-8-15 0-5 2-10 6-14" fill="none" stroke="#35C98A" stroke-width="7" stroke-linecap="round"/>
</g></g>
<text x="800" y="485" text-anchor="middle" style="font-size:44px;font-weight:850">SafeCircle</text>
<text x="800" y="530" text-anchor="middle" class="body">AI 기반 민관협력 안전망</text>
<rect x="675" y="570" width="250" height="70" rx="20" fill="#EEF5FF"/>
<text x="800" y="614" text-anchor="middle" class="label" style="font-size:24px">정보 → 이해 → 행동</text>

<rect x="260" y="805" width="1080" height="58" rx="20" fill="#EAF7F1"/>
<text x="800" y="843" text-anchor="middle" class="body" style="font-weight:750">AI와 데이터는 판단을 대신하기보다, 검증된 정보를 이해 가능한 행동으로 연결합니다.</text>
</svg>